<?xml version="1.0" encoding="UTF-8" standalone="no"?>
<!-- Generator: Adobe Illustrator 18.1.1, SVG Export Plug-In . SVG Version: 6.00 Build 0)  -->

<svg
   xmlns:dc="http://purl.org/dc/elements/1.1/"
   xmlns:cc="http://creativecommons.org/ns#"
   xmlns:rdf="http://www.w3.org/1999/02/22-rdf-syntax-ns#"
   xmlns:svg="http://www.w3.org/2000/svg"
   xmlns="http://www.w3.org/2000/svg"
   xmlns:sodipodi="http://sodipodi.sourceforge.net/DTD/sodipodi-0.dtd"
   xmlns:inkscape="http://www.inkscape.org/namespaces/inkscape"
   version="1.1"
   id="Capa_1"
   x="0px"
   y="0px"
   viewBox="0 0 61.433408 49.138002"
   xml:space="preserve"
   inkscape:version="0.91 r13725"
   sodipodi:docname="break.svg"
   width="61.433407"
   height="49.138"><metadata
     id="metadata65"><rdf:RDF><cc:Work
         rdf:about=""><dc:format>image/svg+xml</dc:format><dc:type
           rdf:resource="http://purl.org/dc/dcmitype/StillImage" /><dc:title /></cc:Work></rdf:RDF></metadata><defs
     id="defs63" /><sodipodi:namedview
     pagecolor="#ffffff"
     bordercolor="#666666"
     borderopacity="1"
     objecttolerance="10"
     gridtolerance="10"
     guidetolerance="10"
     inkscape:pageopacity="0"
     inkscape:pageshadow="2"
     inkscape:window-width="1280"
     inkscape:window-height="657"
     id="namedview61"
     showgrid="false"
     fit-margin-top="0"
     fit-margin-left="0"
     fit-margin-right="0"
     fit-margin-bottom="0"
     inkscape:zoom="3.8415836"
     inkscape:cx="-10.542932"
     inkscape:cy="24.309191"
     inkscape:window-x="-8"
     inkscape:window-y="-8"
     inkscape:window-maximized="1"
     inkscape:current-layer="g4231" /><g
     id="g31"
     transform="translate(-2.8638076,-5.8876904)" /><g
     id="g33"
     transform="translate(-2.8638076,-5.8876904)" /><g
     id="g35"
     transform="translate(-2.8638076,-5.8876904)" /><g
     id="g37"
     transform="translate(-2.8638076,-5.8876904)" /><g
     id="g39"
     transform="translate(-2.8638076,-5.8876904)" /><g
     id="g41"
     transform="translate(-2.8638076,-5.8876904)" /><g
     id="g43"
     transform="translate(-2.8638076,-5.8876904)" /><g
     id="g45"
     transform="translate(-2.8638076,-5.8876904)" /><g
     id="g47"
     transform="translate(-2.8638076,-5.8876904)" /><g
     id="g49"
     transform="translate(-2.8638076,-5.8876904)" /><g
     id="g51"
     transform="translate(-2.8638076,-5.8876904)" /><g
     id="g53"
     transform="translate(-2.8638076,-5.8876904)" /><g
     id="g55"
     transform="translate(-2.8638076,-5.8876904)" /><g
     id="g57"
     transform="translate(-2.8638076,-5.8876904)" /><g
     id="g59"
     transform="translate(-2.8638076,-5.8876904)" /><g
     inkscape:tile-y0="6.1479998"
     inkscape:tile-x0="0"
     id="use4197"
     transform="matrix(-1,0,0,1,61.433406,-6.1479998)"><g
       id="g4231"
       style="fill:#ffbc67;fill-opacity:1"><polygon
         id="polygon4233"
         points="26.728,20.91 0,20.91 0,26.794 3.084,26.794 3.084,55.286 23.644,55.286 23.644,26.794 26.728,26.794 "
         style="fill:#da727e;fill-opacity:1" /><path
         id="path4235"
         d="m 50.838,37.68 c 3.107,-0.057 4.447,-2.825 4.02,-5.184 0.24,-1 0.229,-2.052 -0.131,-3.065 -3.174,-8.959 -9.608,-15.217 -18.35,-18.76 -3.318,-1.345 -7.189,1.453 -8.051,4.592 -0.317,1.155 -0.315,2.235 -0.066,3.216 l 0,15.059 c 0,1.965 1.594,3.56 3.561,3.56 0.609,0 1.177,-0.167 1.679,-0.438 -2.941,3.293 -4.955,7.557 -5.768,12.616 -0.856,5.349 7.314,7.644 8.18,2.254 1.352,-8.449 6.108,-13.686 14.926,-13.85 z M 34.969,35.165 c 0.254,-0.49 0.41,-1.037 0.41,-1.627 l 0,-8.927 c 2.572,1.668 4.678,4.086 5.939,6.519 -2.379,0.99 -4.509,2.344 -6.349,4.035 z"
         style="fill:#ffbc67;fill-opacity:1"
         inkscape:connector-curvature="0" /><path
         id="path4237"
         d="m 27.051,14.322 c -0.123,-3.086 -2.653,-5.553 -5.769,-5.553 -3.116,0 -5.648,2.467 -5.771,5.553 l -0.011,0 c 0,0.039 0.007,0.076 0.007,0.115 0,0.038 -0.007,0.075 -0.007,0.115 l 0.012,0 c 0.123,3.085 2.655,5.552 5.769,5.552 3.116,0 5.648,-2.467 5.771,-5.552 l 0.012,0 c 0,-0.04 -0.005,-0.077 -0.007,-0.115 0.001,-0.039 0.007,-0.076 0.007,-0.115 l -0.013,0 z"
         style="fill:#ffbc67;fill-opacity:1"
         inkscape:connector-curvature="0" /><path
         id="path4239"
         d="M 61.246,27.657 C 61.236,25.196 60.883,22.723 60.539,20.332 60.422,19.509 60.305,18.697 60.205,17.903 60.1,17.057 59.32,16.45 58.484,16.564 c -0.846,0.105 -1.445,0.876 -1.34,1.721 0.102,0.813 0.221,1.644 0.342,2.484 0.332,2.309 0.674,4.696 0.674,6.961 0,0.05 0.002,0.099 0.008,0.148 1.23,12.766 -3.566,13.351 -9.121,14.027 -4.369,0.531 -9.805,1.194 -9.773,9.271 0,0.85 0.691,1.537 1.541,1.537 l 0.004,0 c 0.853,-0.004 1.541,-0.696 1.537,-1.549 -0.018,-5.109 2.279,-5.617 7.064,-6.199 0.287,-0.033 0.578,-0.07 0.873,-0.108 l 0,6.431 -5.023,2.382 c -0.385,0.183 -0.549,0.642 -0.362,1.025 0.131,0.277 0.405,0.44 0.694,0.44 0.111,0 0.226,-0.023 0.33,-0.075 l 5.008,-2.373 4.588,2.361 c 0.113,0.061 0.234,0.087 0.353,0.087 0.279,0 0.552,-0.151 0.687,-0.418 0.195,-0.38 0.047,-0.845 -0.33,-1.038 l -4.4,-2.266 0,-6.785 c 5.15,-0.885 10.691,-3.445 9.408,-16.971 z"
         style="fill:#da727e;fill-opacity:1"
         inkscape:connector-curvature="0" /><rect
         id="rect4241"
         height="2.4230001"
         width="11.426"
         style="fill:#da727e;fill-opacity:1"
         y="16.905001"
         x="1.938" /><rect
         id="rect4243"
         height="2.4219999"
         width="11.426"
         style="fill:#da727e;fill-opacity:1"
         y="13.917"
         x="1.938" /><rect
         id="rect4245"
         height="1.211"
         width="11.426"
         style="fill:#da727e;fill-opacity:1"
         y="12.173"
         x="1.938" /><rect
         id="rect4247"
         height="0.85500002"
         width="11.426"
         style="fill:#da727e;fill-opacity:1"
         y="10.484"
         x="1.938" /><rect
         id="rect4249"
         height="0.56900001"
         width="11.426"
         style="fill:#da727e;fill-opacity:1"
         y="8.993"
         x="1.938" /><rect
         id="rect4251"
         height="0.56900001"
         width="11.426"
         style="fill:#da727e;fill-opacity:1"
         y="8.0380001"
         x="1.938" /><rect
         id="rect4253"
         height="0.56900001"
         width="11.426"
         style="fill:#da727e;fill-opacity:1"
         y="7.1030002"
         x="1.938" /><rect
         id="rect4255"
         height="0.56900001"
         width="11.426"
         style="fill:#da727e;fill-opacity:1"
         y="6.1479998"
         x="1.938" /></g></g></svg>