<?xml version="1.0" encoding="UTF-8" standalone="no"?>
<!-- Generator: Adobe Illustrator 18.1.1, SVG Export Plug-In . SVG Version: 6.00 Build 0)  -->

<svg
   xmlns:dc="http://purl.org/dc/elements/1.1/"
   xmlns:cc="http://creativecommons.org/ns#"
   xmlns:rdf="http://www.w3.org/1999/02/22-rdf-syntax-ns#"
   xmlns:svg="http://www.w3.org/2000/svg"
   xmlns="http://www.w3.org/2000/svg"
   xmlns:sodipodi="http://sodipodi.sourceforge.net/DTD/sodipodi-0.dtd"
   xmlns:inkscape="http://www.inkscape.org/namespaces/inkscape"
   version="1.1"
   id="Capa_1"
   x="0px"
   y="0px"
   viewBox="0 0 22.135 19.313854"
   xml:space="preserve"
   inkscape:version="0.91 r13725"
   sodipodi:docname="x.svg"
   width="22.135"
   height="19.313854"><metadata
     id="metadata45"><rdf:RDF><cc:Work
         rdf:about=""><dc:format>image/svg+xml</dc:format><dc:type
           rdf:resource="http://purl.org/dc/dcmitype/StillImage" /><dc:title></dc:title></cc:Work></rdf:RDF></metadata><defs
     id="defs43" /><sodipodi:namedview
     pagecolor="#ffffff"
     bordercolor="#666666"
     borderopacity="1"
     objecttolerance="10"
     gridtolerance="10"
     guidetolerance="10"
     inkscape:pageopacity="0"
     inkscape:pageshadow="2"
     inkscape:window-width="669"
     inkscape:window-height="480"
     id="namedview41"
     showgrid="false"
     inkscape:zoom="10.661848"
     inkscape:cx="11.0675"
     inkscape:cy="9.6569271"
     inkscape:window-x="0"
     inkscape:window-y="0"
     inkscape:window-maximized="0"
     inkscape:current-layer="g3"
     fit-margin-top="0"
     fit-margin-left="0"
     fit-margin-right="0"
     fit-margin-bottom="0" /><g
     id="g3"
     transform="translate(0,-1.4105728)"><g
       id="g5"
       style="fill:#2c3e50;fill-opacity:1"><path
         style="fill:#2c3e50;fill-opacity:1"
         d="M 0,18.723 14.879,3.089 c 0,0 1.949,-2.114 6.341,-1.597 0,0 0.753,0.599 0.915,1.755 L 7.179,19.24 c 0,0 -1.236,1.558 -6.461,1.438 C 0.717,20.678 0.2,20.438 0,18.723 Z"
         id="path7"
         inkscape:connector-curvature="0" /><path
         style="fill:#2c3e50;fill-opacity:1"
         d="m 0,3.412 14.879,15.634 c 0,0 1.949,2.114 6.341,1.597 0,0 0.753,-0.598 0.915,-1.758 L 7.179,2.891 c 0,0 -1.236,-1.556 -6.461,-1.436 C 0.717,1.456 0.2,1.696 0,3.412 Z"
         id="path9"
         inkscape:connector-curvature="0" /></g></g><g
     id="g11"
     transform="translate(0,-1.4105728)" /><g
     id="g13"
     transform="translate(0,-1.4105728)" /><g
     id="g15"
     transform="translate(0,-1.4105728)" /><g
     id="g17"
     transform="translate(0,-1.4105728)" /><g
     id="g19"
     transform="translate(0,-1.4105728)" /><g
     id="g21"
     transform="translate(0,-1.4105728)" /><g
     id="g23"
     transform="translate(0,-1.4105728)" /><g
     id="g25"
     transform="translate(0,-1.4105728)" /><g
     id="g27"
     transform="translate(0,-1.4105728)" /><g
     id="g29"
     transform="translate(0,-1.4105728)" /><g
     id="g31"
     transform="translate(0,-1.4105728)" /><g
     id="g33"
     transform="translate(0,-1.4105728)" /><g
     id="g35"
     transform="translate(0,-1.4105728)" /><g
     id="g37"
     transform="translate(0,-1.4105728)" /><g
     id="g39"
     transform="translate(0,-1.4105728)" /></svg>